:SAMPLES-PER-SECOND 30
:FULLY-SPECIFIED
:DEGREES
221
root  -1.77688 31.2457 10.5629 -21.9899 -31.3367 20.8425
RightUpLeg  -29.6663 17.0936 -8.26413
RightLeg  89.7266 1.76653 -40.9192
RightFoot  -14.7724 0.435352 17.8248
RightToes  5.82063e-011 0 -3.6325e-017
Spine  26.5741 -9.39379 -2.24662
Spine1  0.0637273 -10.0389 -3.48047
HEad  -14.882 -28.5691 -2.74152
LeftShoulder1  2.91387 -6.17573 -23.8771
LeftArm  -19.6977 6.4522 -45.6331
LeftForeArm  -42.7896 -46.6209 -14.0834
LeftHand  0.615054 -2.17035 -9.44854
RightShoulder  1.18818 1.41544 17.6323
RightArm  -19.6044 -18.4671 52.7145
RightForeArm  -3.94443 70.5907 39.2766
RightHand  -1.20927 0.196923 -25.0028
LeftUpLeg  -26.3532 16.9562 -17.3301
LeftLeg  76.8564 -6.76511 -29.7806
LeftFoot  -24.1398 0.0339528 -1.01306
LeftToes  3.99265e-010 -1.33173e-010 6.75004e-011
222
root  -1.64709 30.987 10.334 -21.2033 -33.8694 21.7124
RightUpLeg  -32.2145 16.8837 -9.11221
RightLeg  89.8147 1.74118 -39.0175
RightFoot  -18.8087 0.855392 14.9206
RightToes  5.82063e-011 0 -3.6325e-017
Spine  28.2716 -8.9974 -4.1777
Spine1  -1.26632 -10.3333 -1.8496
HEad  -15.3596 -26.0687 -2.27262
LeftShoulder1  3.30659 -6.7423 -26.1516
LeftArm  -11.9368 5.05221 -45.6106
LeftForeArm  -43.7118 -33.3337 -9.22749
LeftHand  -0.0110131 -0.184493 0.836135
RightShoulder  1.17187 1.37951 17.4632
RightArm  -9.12411 -11.5415 56.8454
RightForeArm  -24.2028 47.0046 12.8659
RightHand  -1.76641 2.01556 -27.2276
LeftUpLeg  -28.3837 16.1161 -18.1573
LeftLeg  76.63 -6.31536 -27.5248
LeftFoot  -28.9565 -0.0533317 -1.44791
LeftToes  3.99265e-010 -1.33173e-010 6.75004e-011
223
root  -1.57194 30.8565 9.91238 -20.4389 -36.1682 21.5725
RightUpLeg  -34.6984 15.8368 -8.91542
RightLeg  89.8793 1.6816 -36.8926
RightFoot  -20.4617 0.902746 12.977
RightToes  5.82063e-011 0 -3.6325e-017
Spine  31.3737 -8.17293 -7.17095
Spine1  -2.41139 -10.8178 1.36707
HEad  -16.9799 -23.4406 -0.405768
LeftShoulder1  3.56683 -7.17154 -27.3505
LeftArm  -8.46228 3.77261 -45.1257
LeftForeArm  -45.0058 -26.7422 -7.553
LeftHand  -0.183426 3.90617 13.0609
RightShoulder  1.25033 1.5623 18.1985
RightArm  -4.8644 -6.74456 59.0195
RightForeArm  -34.041 22.679 7.56608
RightHand  -2.23253 2.18051 -33.688
LeftUpLeg  -30.3968 14.3593 -17.9501
LeftLeg  76.5757 -5.60303 -24.5674
LeftFoot  -31.2486 -0.311095 -2.85868
LeftToes  3.99265e-010 -1.33173e-010 6.75004e-011
224
root  -1.6142 30.9937 9.43049 -19.0647 -38.331 20.2559
RightUpLeg  -36.4216 14.4706 -7.75513
RightLeg  89.2372 1.08223 -32.724
RightFoot  -20.6106 0.848133 12.1487
RightToes  5.82063e-011 0 -3.6325e-017
Spine  33.8672 -6.93075 -9.49106
Spine1  -2.21145 -10.866 4.63295
HEad  -20.4912 -21.368 2.46769
LeftShoulder1  3.35496 -6.95396 -25.9409
LeftArm  -12.1766 3.71608 -44.6972
LeftForeArm  -41.8317 -28.6452 -7.99844
LeftHand  0.0635065 5.82788 20.9465
RightShoulder  1.3441 1.73849 19.246
RightArm  -19.9848 -9.72532 56.3165
RightForeArm  -34.7301 8.05077 10.4356
RightHand  -2.13709 0.993887 -37.7517
LeftUpLeg  -31.8416 12.5573 -16.7901
LeftLeg  75.6286 -4.69038 -19.2949
LeftFoot  -31.4942 -0.391599 -3.2724
LeftToes  3.99265e-010 -1.33173e-010 6.75004e-011
225
root  -1.78147 31.4682 9.03449 -16.629 -40.5467 18.0394
RightUpLeg  -37.2215 12.8467 -6.19409
RightLeg  87.0394 -0.179887 -26.1871
RightFoot  -20.638 0.821571 11.8154
RightToes  5.82063e-011 0 -3.6325e-017
Spine  34.6004 -6.04155 -10.4534
Spine1  -0.96539 -10.7576 6.90094
HEad  -23.9713 -19.1777 4.79183
LeftShoulder1  2.70041 -5.93979 -22.2551
LeftArm  -17.9941 5.40492 -42.942
LeftForeArm  -34.3614 -36.8484 -10.1437
LeftHand  0.00580513 5.42881 23.7765
RightShoulder  1.33962 1.67051 19.5118
RightArm  -23.9831 -19.042 50.6615
RightForeArm  -48.7524 6.54114 7.83404
RightHand  -1.98054 0.24318 -39.5366
LeftUpLeg  -32.6093 10.1428 -15.063
LeftLeg  73.1247 -3.45355 -11.7523
LeftFoot  -31.3238 -0.0833423 -1.51934
LeftToes  3.99265e-010 -1.33173e-010 6.75004e-011
226
root  -2.0119 32.2724 8.76011 -13.7511 -43.6359 15.527
RightUpLeg  -37.1331 10.9186 -4.33552
RightLeg  82.8865 -1.5795 -19.7369
RightFoot  -20.4196 0.657714 10.0185
RightToes  5.82063e-011 0 -3.6325e-017
Spine  34.289 -5.7513 -10.5344
Spine1  0.119196 -10.7405 8.07454
HEad  -25.0015 -16.0623 5.61012
LeftShoulder1  1.95578 -4.49285 -17.8436
LeftArm  -22.5891 9.17998 -38.2471
LeftForeArm  -25.4392 -45.4196 -12.8585
LeftHand  -0.0837134 5.02769 25.8751
RightShoulder  1.26934 1.50177 18.9415
RightArm  -25.8736 -28.3313 43.0562
RightForeArm  -61.8112 7.23486 5.3713
RightHand  -1.82652 -0.535445 -42.055
LeftUpLeg  -32.721 6.27842 -12.5959
LeftLeg  69.539 -1.91103 -4.78661
LeftFoot  -30.4651 -0.218721 -2.36911
LeftToes  3.99265e-010 -1.33173e-010 6.75004e-011
227
root  -2.21511 33.3662 8.56032 -11.3163 -49.0069 13.1028
RightUpLeg  -36.2965 8.92725 -2.10521
RightLeg  77.2226 -2.17843 -12.7912
RightFoot  -18.0954 0.220772 5.39274
RightToes  5.82063e-011 0 -3.6325e-017
Spine  33.985 -5.35226 -9.74155
Spine1  0.26757 -10.0365 7.8828
HEad  -23.7191 -12.5153 5.40006
LeftShoulder1  1.39207 -3.12458 -14.0996
LeftArm  -26.4814 14.7529 -31.0648
LeftForeArm  -17.3957 -49.1708 -14.1445
LeftHand  -0.0537788 5.17368 29.9563
RightShoulder  1.24387 1.53085 18.2355
RightArm  -27.1615 -34.5385 34.6965
RightForeArm  -69.0584 6.8609 2.69177
RightHand  -1.8319 -0.777396 -44.221
LeftUpLeg  -32.342 1.66024 -9.24598
LeftLeg  66.0174 0.497424 1.93459
LeftFoot  -26.2777 -1.10544 -10.1442
LeftToes  3.99265e-010 -1.33173e-010 6.75004e-011
228
root  -2.36982 34.5852 8.4274 -9.06395 -56.9938 10.4299
RightUpLeg  -35.137 6.8411 0.0710794
RightLeg  71.082 0.0208515 -1.02932
RightFoot  -12.2864 -0.0890423 1.64184
RightToes  5.82063e-011 0 -3.6325e-017
Spine  33.7982 -4.25426 -7.79729
Spine1  -0.408828 -7.85703 5.87525
HEad  -22.0232 -9.61218 5.03009
LeftShoulder1  1.05352 -2.0822 -11.7337
LeftArm  -29.0794 20.6157 -23.6996
LeftForeArm  -13.8663 -47.2708 -13.0831
LeftHand  0.180999 5.93669 35.0463
RightShoulder  1.28946 1.78315 17.8825
RightArm  -25.7829 -38.4562 27.1318
RightForeArm  -69.8218 7.08577 1.66404
RightHand  -1.83878 -0.761493 -44.2257
LeftUpLeg  -32.3588 -2.62039 -5.49144
LeftLeg  64.6374 5.06583 12.3185
LeftFoot  -16.6572 -0.791134 -18.4719
LeftToes  3.99265e-010 -1.33173e-010 6.75004e-011
229
root  -2.56277 35.6356 8.39213 -5.09496 -65.9535 6.00948
RightUpLeg  -34.1776 4.15414 1.98332
RightLeg  66.1089 5.53945 12.9247
RightFoot  -5.40152 -0.334177 5.14454
RightToes  5.82063e-011 0 -3.6325e-017
Spine  33.5438 -2.71037 -5.2394
Spine1  -1.35943 -4.82071 2.91203
HEad  -20.9058 -7.34702 4.63693
LeftShoulder1  0.883638 -1.41188 -10.7422
LeftArm  -30.6933 25.815 -18.4364
LeftForeArm  -15.395 -42.3446 -11.13
LeftHand  0.789484 7.48576 40.6626
RightShoulder  1.34684 2.01583 17.8926
RightArm  -22.5392 -40.4502 22.227
RightForeArm  -67.4718 7.86689 2.39066
RightHand  -1.83803 -0.704003 -43.7163
LeftUpLeg  -33.7331 -7.06341 -1.72247
LeftLeg  66.8164 9.52527 23.8084
LeftFoot  -5.04607 0.927878 -17.4976
LeftToes  3.99265e-010 -1.33173e-010 6.75004e-011
230
root  -2.85606 36.4269 8.40384 3.52921 -73.8051 -2.81356
RightUpLeg  -33.2796 0.632621 3.90014
RightLeg  62.0374 9.66715 18.7141
RightFoot  -3.49458 -0.93475 13.8913
RightToes  5.82063e-011 0 -3.6325e-017
Spine  33.1927 -1.11044 -3.23987
Spine1  -2.29681 -2.1848 1.41754
HEad  -20.2239 -4.91953 3.82495
LeftShoulder1  0.850333 -1.18739 -10.8936
LeftArm  -32.742 30.7047 -16.4351
LeftForeArm  -19.2455 -36.9096 -9.46412
LeftHand  1.7581 9.51699 45.9204
RightShoulder  1.35042 2.02541 17.9167
RightArm  -21.3512 -40.4811 21.4619
RightForeArm  -63.6379 8.10356 3.15475
RightHand  -2.01745 -0.283816 -43.9924
LeftUpLeg  -35.7583 -12.0959 1.6159
LeftLeg  68.9569 10.0998 27.463
LeftFoot  0.550781 1.22971 -11.4078
LeftToes  3.99265e-010 -1.33173e-010 6.75004e-011
231
root  -3.20699 37.0551 8.36608 22.1514 -79.8583 -21.2509
RightUpLeg  -32.5042 -3.11204 5.79712
RightLeg  57.0643 7.27973 11.6865
RightFoot  -6.93425 -0.788088 18.3513
RightToes  5.82063e-011 0 -3.6325e-017
Spine  32.771 0.667862 -2.47838
Spine1  -2.90308 -0.226548 2.22029
HEad  -20.0045 -2.24357 2.67193
LeftShoulder1  0.930694 -1.38886 -11.8811
LeftArm  -35.3226 34.8966 -17.8843
LeftForeArm  -21.8449 -31.9739 -8.13772
LeftHand  2.55531 11.0029 48.7688
RightShoulder  1.30411 1.87461 17.728
RightArm  -23.2356 -39.2149 24.8375
RightForeArm  -58.9383 6.87255 3.28229
RightHand  -2.04191 -0.225252 -44.0126
LeftUpLeg  -37.1115 -16.4036 3.97038
LeftLeg  66.7292 8.31097 21.2421
LeftFoot  -1.89248 0.98749 -12.2214
LeftToes  3.99265e-010 -1.33173e-010 6.75004e-011
232
root  -3.59557 37.3112 8.28998 63.56 -83.4474 -62.3287
RightUpLeg  -32.508 -6.06598 7.95592
RightLeg  53.1327 -1.87175 -3.13241
RightFoot  -8.98633 -0.302543 13.0133
RightToes  5.82063e-011 0 -3.6325e-017
Spine  31.9507 2.49776 -1.95657
Spine1  -2.98653 1.63207 2.84188
HEad  -20.2828 0.2374 1.96716
LeftShoulder1  1.09497 -1.87684 -13.3503
LeftArm  -36.7728 36.9871 -21.9903
LeftForeArm  -22.5122 -28.111 -7.15626
LeftHand  2.82746 11.5889 48.8294
RightShoulder  1.29645 1.81554 17.8673
RightArm  -25.2951 -37.4151 30.9288
RightForeArm  -55.3169 4.65749 3.63334
RightHand  -1.73434 -0.894556 -43.0645
LeftUpLeg  -37.114 -18.7884 5.58559
LeftLeg  60.3452 6.58414 12.8514
LeftFoot  -5.52615 1.04969 -19.5335
LeftToes  3.99265e-010 -1.33173e-010 6.75004e-011
233
root  -4.09934 37.0432 8.20515 119.557 -81.9193 -118.409
RightUpLeg  -32.6063 -8.06724 9.52831
RightLeg  52.4338 -9.23637 -13.0773
RightFoot  -6.67047 -0.260725 5.11567
RightToes  5.82063e-011 0 -3.6325e-017
Spine  30.618 3.71199 -0.997128
Spine1  -2.6309 3.46609 0.857798
HEad  -20.2208 3.05028 2.12117
LeftShoulder1  1.33939 -2.54358 -15.3194
LeftArm  -35.7878 36.4538 -27.0359
LeftForeArm  -22.8426 -25.1411 -6.44128
LeftHand  2.54747 11.3964 45.7887
RightShoulder  1.41888 2.03417 19.2041
RightArm  -24.775 -34.8314 37.6463
RightForeArm  -55.1264 2.85469 5.08448
RightHand  -1.27 -1.96908 -41.6181
LeftUpLeg  -35.6194 -19.8567 6.18286
LeftLeg  55.1142 7.60281 11.9441
LeftFoot  -6.12286 1.03604 -21.6456
LeftToes  3.99265e-010 -1.33173e-010 6.75004e-011
